<svg xmlns="http://www.w3.org/2000/svg" viewBox="0 0 1926.44 1083.5">
  <defs>
    <linearGradient id="linear-gradient" x1="960.5" y1="1082.95" x2="960.5" y2="2.95" gradientUnits="userSpaceOnUse">
      <stop offset="0" stop-color="#141b77"/>
      <stop offset="1" stop-color="#160a28"/>
    </linearGradient>
    <style>
      .cls-10,.cls-12,.cls-3,.cls-4,.cls-5,.cls-6,.cls-7,.cls-8,.cls-9{stroke:#000;stroke-miterlimit:10}.cls-3,.cls-4,.cls-5,.cls-8{fill:#e5d117}.cls-4{stroke-width:1.54px}.cls-5{stroke-width:.91px}.cls-10,.cls-16,.cls-6{fill:#b8b42d}.cls-6,.cls-7{stroke-width:.73px}.cls-7{fill:#e8dd1a}.cls-8{stroke-width:.65px}.cls-9{stroke-width:.96px}.cls-10{stroke-width:.72px}.cls-12{stroke-width:.88px}
    </style>
  </defs>
  <g id="SkyBG">
    <path id="SkyBG-2" data-name="SkyBG" fill="url(#linear-gradient)" stroke="#000" stroke-miterlimit="10" d="M.5.5h1920v1080H.5z"/>
  </g>
  <path d="M458.21 530.67a178.59 178.59 0 11-156.11-314.6 209.69 209.69 0 00-129.34 42.23c-93 69.89-111.73 201.94-41.84 294.94s201.94 111.72 294.94 41.83a209.65 209.65 0 0076.53-112.49 178 178 0 01-44.18 48.09z" stroke-width=".81" fill="#bfaa11" stroke="#000" stroke-miterlimit="10" id="Moon"/>
  <g id="Stars">
    <animate attributeName="opacity" values="0.0; 0.5; 1; 0.5; 0.0" dur="8000ms" repeatCount="indefinite"></animate>
    <path class="cls-3" d="M1104.77 174.28z"/>
    <path class="cls-3" d="M1045.58 173.78a29.35 29.35 0 0129.34 29.35 29.35 29.35 0 0129.35-29.35 29.35 29.35 0 01-29.35-29.35 29.35 29.35 0 01-29.34 29.35z" transform="translate(.5 .5)"/>
    <path class="cls-3" d="M1469.06 125.72z"/>
    <path class="cls-3" d="M1409.86 125.22a29.35 29.35 0 0129.35 29.35 29.35 29.35 0 0129.35-29.35 29.35 29.35 0 01-29.35-29.35 29.35 29.35 0 01-29.35 29.35z" transform="translate(.5 .5)"/>
    <path class="cls-3" d="M1289.04 290.03z"/>
    <path class="cls-3" d="M1229.85 289.53a29.35 29.35 0 0129.34 29.34 29.35 29.35 0 0129.35-29.34 29.35 29.35 0 01-29.35-29.35 29.35 29.35 0 01-29.34 29.35z" transform="translate(.5 .5)"/>
    <path class="cls-4" d="M1725.5 244.97z"/>
    <path class="cls-4" d="M1634.89 244.47a45.05 45.05 0 0145 45.06 45.06 45.06 0 0145.11-45.06 45.06 45.06 0 01-45.06-45.06 45.05 45.05 0 01-45.05 45.06z" transform="translate(.5 .5)"/>
    <path class="cls-4" d="M544.16 260.68z"/>
    <path class="cls-4" d="M453.55 260.18a45.05 45.05 0 0145.05 45.05 45.06 45.06 0 0145.06-45.05 45.06 45.06 0 01-45.06-45.06 45.05 45.05 0 01-45.05 45.06z" transform="translate(.5 .5)"/>
    <path class="cls-5" d="M1682.72 96.37z"/>
    <path class="cls-5" d="M1629.06 95.87a26.58 26.58 0 0126.58 26.58 26.58 26.58 0 0126.58-26.58 26.58 26.58 0 01-26.58-26.58 26.58 26.58 0 01-26.58 26.58z" transform="translate(.5 .5)"/>
    <path class="cls-6" d="M1349.7 652.72z"/>
    <path class="cls-7" d="M1486.42 404.8a21.4 21.4 0 0121.4 21.39 21.4 21.4 0 0121.4-21.39 21.4 21.4 0 01-21.4-21.4 21.4 21.4 0 01-21.4 21.4z" transform="translate(.5 .5)"/>
    <path class="cls-6" d="M1349.7 505.9z"/>
    <path class="cls-7" d="M1486.42 258a21.4 21.4 0 0121.4 21.4 21.4 21.4 0 0121.4-21.4 21.4 21.4 0 01-21.4-21.4 21.4 21.4 0 01-21.4 21.4z" transform="translate(.5 .5)"/>
    <path class="cls-6" d="M997.17 618.92z"/>
    <path class="cls-7" d="M1133.89 371a21.4 21.4 0 0121.4 21.4 21.4 21.4 0 0121.4-21.4 21.4 21.4 0 01-21.4-21.39 21.4 21.4 0 01-21.4 21.39z" transform="translate(.5 .5)"/>
    <path class="cls-6" d="M795.3 405.3z"/>
    <path class="cls-7" d="M932 157.37a21.4 21.4 0 0121.4 21.4 21.4 21.4 0 0121.4-21.4 21.4 21.4 0 01-21.4-21.4 21.4 21.4 0 01-21.4 21.4z" transform="translate(.5 .5)"/>
    <path class="cls-6" d="M1120.88 338.04z"/>
    <path class="cls-7" d="M1257.6 90.12a21.4 21.4 0 0121.4 21.4 21.4 21.4 0 0121.4-21.4 21.4 21.4 0 01-21.4-21.4 21.4 21.4 0 01-21.4 21.4z" transform="translate(.5 .5)"/>
    <path class="cls-3" d="M824.65 319.37z"/>
    <path class="cls-3" d="M765.45 318.87a29.35 29.35 0 0129.35 29.35 29.35 29.35 0 0129.35-29.35 29.35 29.35 0 01-29.35-29.34 29.35 29.35 0 01-29.35 29.34z" transform="translate(.5 .5)"/>
    <path class="cls-3" d="M354.22 96.37z"/>
    <path class="cls-3" d="M295 95.87a29.35 29.35 0 0129.34 29.35 29.35 29.35 0 0129.35-29.35 29.35 29.35 0 01-29.35-29.35A29.35 29.35 0 01295 95.87z" transform="translate(.5 .5)"/>
    <path class="cls-3" d="M661.55 186.2z"/>
    <path class="cls-3" d="M602.36 185.7a29.35 29.35 0 0129.35 29.3 29.34 29.34 0 0129.34-29.34 29.34 29.34 0 01-29.34-29.35 29.35 29.35 0 01-29.35 29.39z" transform="translate(.5 .5)"/>
    <path class="cls-8" d="M939.75 550.88z"/>
    <path class="cls-8" d="M901.3 550.38a19 19 0 0119 19 19 19 0 0119-19 19 19 0 01-19-19 19 19 0 01-19 19z" transform="translate(.5 .5)"/>
    <path class="cls-8" d="M710.47 445.67z"/>
    <path class="cls-8" d="M672 445.17a19 19 0 0119 19 19 19 0 0119-19 19 19 0 01-19-19 19 19 0 01-19 19z" transform="translate(.5 .5)"/>
    <path class="cls-8" d="M979.47 405.3z"/>
    <path class="cls-8" d="M941 404.8a19 19 0 0119 19 19 19 0 0119-19 19 19 0 01-19-19 19 19 0 01-19 19z" transform="translate(.5 .5)"/>
    <path class="cls-8" d="M1694.08 521.53z"/>
    <path class="cls-8" d="M1655.64 521a19 19 0 0119 19 19 19 0 0119-19 19 19 0 01-19-19 19 19 0 01-19 19z" transform="translate(.5 .5)"/>
    <path class="cls-8" d="M1834.47 405.3z"/>
    <path class="cls-8" d="M1796 404.8a19 19 0 0119 19 19 19 0 0119-19 19 19 0 01-19-19 19 19 0 01-19 19z" transform="translate(.5 .5)"/>
  </g>
  <g id="Building1">
    <path id="Building" class="cls-9" d="M.5 664.78h153v415.72H.5z"/>
    <g id='lights'>
    <animate attributeName="opacity" values="0.0; 0.5; 1; 0.5; 0.0" dur="3000ms" repeatCount="indefinite"></animate>

    <path class="cls-10" d="M15.5 684.5h34v34h-34zM60 684.5h34v34H60zM104 684.5h34v34h-34zM15.5 727.14h34v34h-34zM60 727.14h34v34H60zM104 727.14h34v34h-34zM15.5 773.14h34v34h-34zM60 773.14h34v34H60zM104 773.14h34v34h-34zM15.75 819.14h34v34h-34zM60.25 819.14h34v34h-34zM104.25 819.14h34v34h-34zM16 865.14h34v34H16zM60.5 865.14h34v34h-34zM104.5 865.14h34v34h-34zM15.5 911.14h34v34h-34zM60 911.14h34v34H60zM104 911.14h34v34h-34zM15.5 957.14h34v34h-34zM60 957.14h34v34H60zM104 957.14h34v34h-34z"/>
    </g>
  </g>
  <g id="Building2">
    <path stroke-width=".72" stroke="#000" stroke-miterlimit="10" d="M153.5 845.9h153v234.6h-153z"/>
    <path class="cls-10" d="M168.75 957.14h34v34h-34zM213.25 957.14h34v34h-34zM257.25 957.14h34v34h-34zM168.75 911.14h34v34h-34zM213.25 911.14h34v34h-34zM257.25 911.14h34v34h-34zM168.75 865.14h34v34h-34zM213.25 865.14h34v34h-34zM257.25 865.14h34v34h-34z"/>
  </g>
  <g id="Building3">
    <path class="cls-12" d="M487.67 737.81h7a73 73 0 0173 73v269.69h-153V810.82a73 73 0 0173-73.01z"/>
    <path class="cls-10" d="M429.91 911.14h34v34h-34zM474.41 911.14h34v34h-34zM518.41 911.14h34v34h-34zM429.91 865.14h34v34h-34zM474.41 865.14h34v34h-34zM518.41 865.14h34v34h-34zM429.91 819.14h34v34h-34zM474.41 819.14h34v34h-34zM518.41 819.14h34v34h-34zM429.91 1049.14h34v34h-34zM474.41 1049.14h34v34h-34zM518.41 1049.14h34v34h-34zM429.91 1003.14h34v34h-34zM474.41 1003.14h34v34h-34zM518.41 1003.14h34v34h-34zM429.91 957.14h34v34h-34zM474.41 957.14h34v34h-34zM518.41 957.14h34v34h-34z"/>
  </g>
  <g id="Building4">
    <path class="cls-9" d="M567.66 664.78h153v415.72h-153z"/>
    <path class="cls-10" d="M583 773.14h34v34h-34zM627.5 773.14h34v34h-34zM671.5 773.14h34v34h-34zM583 727.14h34v34h-34zM627.5 727.14h34v34h-34zM671.5 727.14h34v34h-34zM583 681.14h34v34h-34zM627.5 681.14h34v34h-34zM671.5 681.14h34v34h-34zM582.91 911.14h34v34h-34zM627.41 911.14h34v34h-34zM671.41 911.14h34v34h-34zM582.91 865.14h34v34h-34zM627.41 865.14h34v34h-34zM671.41 865.14h34v34h-34zM582.91 819.14h34v34h-34zM627.41 819.14h34v34h-34zM671.41 819.14h34v34h-34z"/>
  </g>
  <g id="Building5">
    <path stroke-width=".96" stroke="#000" stroke-miterlimit="10" d="M807.5 664.78h151.31v415.72H807.5z"/>
    <path stroke-width=".67" stroke="#000" stroke-miterlimit="10" d="M883.252 589.04l75.752 75.752-75.752 75.753-75.753-75.753z"/>
    <path stroke-width=".6" fill="#b8b42d" stroke="#000" stroke-miterlimit="10" d="M883.15 602.365l62.41 62.41-62.41 62.409-62.408-62.41z"/>
    <g id="WindowsVertTri">
      <path class="cls-16" d="M823.2 714.88h20V979.3h-20zM823.21 714.87l-.03-20.78 20.02 20.76-19.99.02zM851.86 741.19h20v238.1h-20zM851.87 741.19l-.02-20.79 20.02 20.77-20 .02zM894.15 740.68h20V979.3h-20zM914.15 740.68h-20l20-21.05v21.05zM923.93 712.88h20v266.41h-20zM943.92 712.88h-20l20-19.89v19.89z"/>
    </g>
  </g>
  <g id="Building6">
    <path stroke-width=".81" stroke="#000" stroke-miterlimit="10" d="M958.81 786.34h153v294.16h-153z"/>
    <path class="cls-10" d="M973.86 901.64h34v34h-34zM1018.36 901.64h34v34h-34zM1062.36 901.64h34v34h-34zM973.86 855.64h34v34h-34zM1018.36 855.64h34v34h-34zM1062.36 855.64h34v34h-34zM973.86 809.64h34v34h-34zM1018.36 809.64h34v34h-34zM1062.36 809.64h34v34h-34zM974.06 1039.64h34v34h-34zM1018.56 1039.64h34v34h-34zM1062.56 1039.64h34v34h-34zM974.06 993.64h34v34h-34zM1018.56 993.64h34v34h-34zM1062.56 993.64h34v34h-34zM974.06 947.64h34v34h-34zM1018.56 947.64h34v34h-34zM1062.56 947.64h34v34h-34z"/>
  </g>
  <g id="Building7">
    <path class="cls-12" d="M1166.81 737.81h153v342.69h-153z"/>
    <path class="cls-10" d="M1182.06 848.14h34v34h-34zM1226.56 848.14h34v34h-34zM1270.56 848.14h34v34h-34zM1182.06 802.14h34v34h-34zM1226.56 802.14h34v34h-34zM1270.56 802.14h34v34h-34zM1182.06 756.14h34v34h-34zM1226.56 756.14h34v34h-34zM1270.56 756.14h34v34h-34zM1182.06 986.14h34v34h-34zM1226.56 986.14h34v34h-34zM1270.56 986.14h34v34h-34zM1182.06 1032.14h34v34h-34zM1226.56 1032.14h34v34h-34zM1270.56 1032.14h34v34h-34zM1182.06 940.14h34v34h-34zM1226.56 940.14h34v34h-34zM1270.56 940.14h34v34h-34zM1182.06 894.14h34v34h-34zM1226.56 894.14h34v34h-34zM1270.56 894.14h34v34h-34z"/>
  </g>
  <path d="M1367.34 424.27h38.35a47.53 47.53 0 0147.53 47.53v608.7h0-133.41 0V471.8a47.53 47.53 0 0147.53-47.53z" stroke-width="1.13" stroke="#000" stroke-miterlimit="10" id="Building8"/>
  <g id="Building9">
    <path class="cls-9" d="M1453.22 664.78h153v415.72h-153z"/>
    <path class="cls-10" d="M1468.47 773.14h34v34h-34zM1512.97 773.14h34v34h-34zM1556.97 773.14h34v34h-34zM1468.47 727.14h34v34h-34zM1512.97 727.14h34v34h-34zM1556.97 727.14h34v34h-34zM1468.47 681.14h34v34h-34zM1512.97 681.14h34v34h-34zM1556.97 681.14h34v34h-34zM1468.47 911.14h34v34h-34zM1512.97 911.14h34v34h-34zM1556.97 911.14h34v34h-34zM1468.47 865.14h34v34h-34zM1512.97 865.14h34v34h-34zM1556.97 865.14h34v34h-34zM1468.47 819.14h34v34h-34zM1512.97 819.14h34v34h-34zM1556.97 819.14h34v34h-34zM1468.47 1049.14h34v34h-34zM1512.97 1049.14h34v34h-34zM1556.97 1049.14h34v34h-34zM1468.47 1003.14h34v34h-34zM1512.97 1003.14h34v34h-34zM1556.97 1003.14h34v34h-34zM1468.47 957.14h34v34h-34zM1512.97 957.14h34v34h-34zM1556.97 957.14h34v34h-34z"/>
  </g>
  <g id="Building10">
    <path stroke-width=".88" stroke="#000" stroke-miterlimit="10" d="M1626.58 731.77h153v348.73h-153z"/>
    <path class="cls-10" d="M1641.83 838.64h34v34h-34zM1686.33 838.64h34v34h-34zM1730.33 838.64h34v34h-34zM1641.83 792.64h34v34h-34zM1686.33 792.64h34v34h-34zM1730.33 792.64h34v34h-34zM1641.83 746.64h34v34h-34zM1686.33 746.64h34v34h-34zM1730.33 746.64h34v34h-34zM1641.83 976.64h34v34h-34zM1686.33 976.64h34v34h-34zM1730.33 976.64h34v34h-34zM1641.83 930.64h34v34h-34zM1686.33 930.64h34v34h-34zM1730.33 930.64h34v34h-34zM1641.83 884.64h34v34h-34zM1686.33 884.64h34v34h-34zM1730.33 884.64h34v34h-34z"/>
  </g>
  <g id="Building11">
    <path stroke-width=".98" stroke="#000" stroke-miterlimit="10" d="M1772.95 652.72h153v427.78h-153z"/>
    <path class="cls-10" d="M1788.2 766.81h34v34h-34zM1832.7 766.81h34v34h-34zM1876.7 766.81h34v34h-34zM1788.2 720.81h34v34h-34zM1832.7 720.81h34v34h-34zM1876.7 720.81h34v34h-34zM1788.2 674.81h34v34h-34zM1832.7 674.81h34v34h-34zM1876.7 674.81h34v34h-34zM1788.45 904.81h34v34h-34zM1832.95 904.81h34v34h-34zM1876.95 904.81h34v34h-34zM1788.45 858.81h34v34h-34zM1832.95 858.81h34v34h-34zM1876.95 858.81h34v34h-34zM1788.45 812.81h34v34h-34zM1832.95 812.81h34v34h-34zM1876.95 812.81h34v34h-34zM1788.2 1042.81h34v34h-34zM1832.7 1042.81h34v34h-34zM1876.7 1042.81h34v34h-34zM1788.2 996.81h34v34h-34zM1832.7 996.81h34v34h-34zM1876.7 996.81h34v34h-34zM1788.2 950.81h34v34h-34zM1832.7 950.81h34v34h-34zM1876.7 950.81h34v34h-34z"/>
  </g>
</svg>